#!OML:ASF G:\ViconDB\ViconDB\414\test\team2\shane.ASF
:FULLY-SPECIFIED
:DEGREES
194
root 0.968342 16.782 2.73389 -7.61583 -3.64278 -3.7002
lowerback 7.25936 3.15687 4.10899
upperback 1.57646 4.50961 -0.000878983
thorax -2.11251 2.22978 -2.69134
lowerneck -13.199 -3.31874 -5.64814
upperneck 18.8678 -5.48014 10.078
head 8.48104 -2.003 3.71974
rclavicle -7.78801e-014 5.1684e-015
rhumerus -25.047 14.7252 -99.166
rradius 37.5727
rwrist 30.468
rhand -31.1598 -14.2623
rfingers 7.12502
rthumb -4.4374 -44.1958
lclavicle -7.78801e-014 5.1684e-015
lhumerus -48.0317 0.827079 74.4959
lradius 11.8329
lwrist -31.9773
lhand -34.3319 7.75074
lfingers 7.12502
lthumb -7.49994 37.5978
rfemur 22.004 -5.49423 14.1905
rtibia 37.4862
rfoot 2.41619 9.05713
rtoes -22.2006
lfemur -8.57142 16.6849 -12.8057
ltibia 30.6568
lfoot -20.8672 -20.7238
ltoes -5.67998
195
root 0.995773 16.8049 2.9443 -7.65086 -3.97442 -2.88936
lowerback 7.06295 3.22885 3.16698
upperback 1.68074 4.52328 -0.102306
thorax -1.96007 2.24541 -2.25702
lowerneck -13.2783 -3.35211 -6.11311
upperneck 18.6171 -5.44359 10.2806
head 8.42636 -2.00235 3.8676
rclavicle -2.16116e-014 -4.37326e-015
rhumerus -25.9418 15.2493 -99.1132
rradius 37.494
rwrist 29.6119
rhand -30.8819 -14.1653
rfingers 7.12502
rthumb -4.16906 -44.1042
lclavicle -2.16116e-014 -4.37326e-015
lhumerus -47.557 0.452508 75.7704
lradius 12.3213
lwrist -31.7029
lhand -34.8735 7.31874
lfingers 7.12502
lthumb -8.02263 37.1465
rfemur 19.9826 -5.27446 12.9765
rtibia 41.6319
rfoot 2.40395 8.43718
rtoes -19.1075
lfemur -7.15061 17.4444 -13.5343
ltibia 29.7936
lfoot -21.0382 -20.9471
ltoes -5.24866
196
root 1.01369 16.8306 3.1329 -7.71837 -3.71706 -2.23161
lowerback 7.33903 3.06358 2.30094
upperback 1.66245 4.24305 -0.275196
thorax -2.1994 2.10439 -1.95071
lowerneck -13.2519 -3.19429 -5.91249
upperneck 18.3603 -5.19312 10.0263
head 8.30002 -1.9002 3.77106
rclavicle -1.01306e-013 8.34896e-015
rhumerus -26.7848 15.466 -99.2413
rradius 37.1226
rwrist 29.8876
rhand -30.7326 -14.3366
rfingers 7.12502
rthumb -4.02496 -44.2783
lclavicle -1.01306e-013 8.34896e-015
lhumerus -46.9163 -0.788009 77.5129
lradius 12.8783
lwrist -29.9984
lhand -34.9023 7.40537
lfingers 7.12502
lthumb -8.0505 37.232
rfemur 17.9788 -5.67327 11.9755
rtibia 45.4155
rfoot 0.94087 7.11036
rtoes -18.5131
lfemur -5.97376 17.9037 -14.1385
ltibia 28.9041
lfoot -21.0328 -21.5308
ltoes -4.67928
197
root 1.03312 16.8501 3.32378 -7.93143 -3.62265 -1.88464
lowerback 7.61619 2.94712 1.78169
upperback 1.78072 4.0511 -0.318404
thorax -2.27355 2.01072 -1.70287
lowerneck -13.2677 -3.10942 -5.92673
upperneck 18.0375 -5.04106 10.0097
head 8.18156 -1.83645 3.77949
rclavicle -1.79652e-014 -4.37326e-015
rhumerus -27.5024 15.9184 -99.2447
rradius 36.9774
rwrist 29.5045
rhand -30.3388 -14.3353
rfingers 7.12502
rthumb -3.64462 -44.2839
lclavicle -1.79652e-014 -4.37326e-015
lhumerus -46.2965 -2.6334 79.7768
lradius 13.5713
lwrist -28.1794
lhand -35.171 7.66889
lfingers 7.12502
lthumb -8.30985 37.4854
rfemur 16.222 -6.18299 11.1595
rtibia 48.7681
rfoot -0.865229 6.18
rtoes -17.9956
lfemur -4.54621 18.187 -14.3533
ltibia 28.0018
lfoot -21.204 -21.8045
ltoes -4.55927
198
root 1.04064 16.8721 3.51998 -8.03077 -3.0085 -1.63943
lowerback 7.68939 2.67434 1.10655
upperback 1.85745 3.63799 -0.231577
thorax -2.29966 1.80792 -1.20241
lowerneck -13.2172 -3.03625 -6.14646
upperneck 17.8159 -4.8599 9.93525
head 8.08539 -1.77824 3.80856
rclavicle -2.15619e-014 7.95139e-015
rhumerus -28.2779 16.2562 -99.0453
rradius 36.537
rwrist 29.6229
rhand -30.3435 -13.9813
rfingers 7.12502
rthumb -3.64919 -43.9298
lclavicle -2.15619e-014 7.95139e-015
lhumerus -45.4901 -3.12817 81.0325
lradius 13.8807
lwrist -27.5626
lhand -35.8467 7.10704
lfingers 7.12502
lthumb -8.96189 36.8967
rfemur 14.4873 -7.19358 10.6054
rtibia 51.7867
rfoot -2.70734 5.24268
rtoes -17.7336
lfemur -3.2956 18.1797 -14.4558
ltibia 27.0464
lfoot -21.21 -22.3836
ltoes -4.15164
